<?xml version="1.0" encoding="UTF-8" ?>
<!DOCTYPE svg PUBLIC "-//W3C//DTD SVG 1.1//EN" "http://www.w3.org/Graphics/SVG/1.1/DTD/svg11.dtd">
<svg width="276pt" height="297pt" viewBox="0 0 276 297" version="1.1" xmlns="http://www.w3.org/2000/svg">
<g id="#000000fc">
<path fill="#000000" opacity="1.00" d=" M 1.00 0.00 L 94.54 0.00 C 97.62 0.04 100.71 0.05 103.80 0.00 L 104.98 0.00 C 81.21 7.98 57.93 19.01 40.17 37.16 C 20.59 55.35 8.19 79.77 1.13 105.27 C 0.82 70.18 1.08 35.09 1.00 0.00 M 16.00 17.00 C 15.97 28.77 15.97 40.54 16.16 52.31 C 27.10 39.83 39.10 28.37 51.29 17.15 C 39.53 16.97 27.77 16.97 16.00 17.00 Z" />
<path fill="#000000" opacity="1.00" d=" M 171.03 0.00 L 172.23 0.00 C 175.66 0.05 179.11 0.08 182.54 0.00 L 275.00 0.00 C 274.91 35.42 275.19 70.85 274.86 106.27 C 267.32 74.61 249.11 45.60 222.99 26.00 C 207.72 13.64 189.31 6.54 171.03 0.00 M 224.76 17.14 C 237.27 28.02 248.57 40.17 259.85 52.29 C 260.03 40.53 260.03 28.77 260.00 17.00 C 248.25 16.97 236.50 16.97 224.76 17.14 Z" />
<path fill="#000000" opacity="1.00" d=" M 78.02 15.05 C 99.79 4.49 124.29 -0.14 148.43 1.46 C 190.12 4.66 230.03 28.03 252.19 63.66 C 235.99 69.84 217.37 70.30 203.30 81.32 C 196.71 86.52 192.28 94.42 191.75 102.84 C 189.92 119.70 192.49 136.86 189.09 153.59 C 155.07 152.63 120.98 152.62 86.96 153.59 C 84.38 137.56 85.41 121.27 84.75 105.12 C 84.28 95.19 79.14 85.75 71.08 79.94 C 56.95 70.24 39.25 69.66 23.60 63.68 C 37.02 43.05 55.82 25.80 78.02 15.05 Z" />
<path fill="#000000" opacity="1.00" d=" M 20.88 67.96 C 37.44 73.61 56.66 73.77 70.74 85.29 C 76.52 89.88 80.04 96.71 81.10 103.96 C 83.90 121.49 81.48 139.27 82.35 156.91 C 63.32 158.97 44.79 169.59 36.01 187.00 C 30.05 196.63 30.18 208.39 29.51 219.30 C -3.61 176.77 -7.38 113.95 20.88 67.96 M 45.44 82.40 C 37.44 83.46 30.70 90.13 28.63 97.80 C 25.77 108.30 32.54 120.16 43.02 122.97 C 54.76 127.25 68.52 117.98 69.76 105.82 C 72.13 92.40 58.71 79.53 45.44 82.40 Z" />
<path fill="#000000" opacity="1.00" d=" M 205.26 85.28 C 219.33 73.78 238.53 73.61 255.08 67.98 C 276.58 103.67 280.26 149.61 264.17 188.11 C 260.08 199.43 253.47 209.56 246.57 219.33 C 245.92 209.84 246.26 199.77 241.96 191.02 C 235.98 177.22 224.28 165.99 210.12 160.87 C 204.87 159.22 199.48 158.15 194.12 156.94 C 194.95 138.44 191.08 119.66 195.41 101.40 C 196.71 95.11 200.45 89.46 205.26 85.28 M 223.44 82.40 C 215.44 83.46 208.70 90.13 206.63 97.80 C 203.77 108.30 210.54 120.16 221.02 122.97 C 232.76 127.25 246.52 117.98 247.76 105.82 C 250.13 92.40 236.71 79.53 223.44 82.40 Z" />
<path fill="#000000" opacity="1.00" d=" M 54.36 92.17 C 61.09 88.39 65.25 98.92 59.64 101.83 C 52.91 105.61 48.75 95.07 54.36 92.17 Z" />
<path fill="#000000" opacity="1.00" d=" M 232.36 92.17 C 239.09 88.39 243.24 98.92 237.64 101.83 C 230.91 105.61 226.75 95.07 232.36 92.17 Z" />
<path fill="#000000" opacity="1.00" d=" M 41.98 184.98 C 50.34 171.62 65.20 162.97 80.84 161.72 C 88.93 174.16 99.58 184.58 109.39 195.63 C 117.59 204.42 125.16 214.03 135.08 221.00 C 132.31 240.92 116.33 258.23 96.67 262.45 C 73.64 268.67 47.60 255.61 38.08 233.92 C 31.66 218.24 32.01 199.11 41.98 184.98 M 57.39 182.65 C 57.00 183.23 56.22 184.37 55.83 184.94 C 67.31 193.71 79.80 201.57 94.29 203.97 C 81.36 197.98 68.99 190.94 57.39 182.65 M 49.68 200.96 C 58.19 206.86 65.97 213.88 75.13 218.80 C 82.57 221.63 90.53 222.87 98.25 224.74 C 88.24 220.09 76.91 217.94 68.15 210.87 C 62.64 206.94 57.35 202.71 51.86 198.76 C 51.14 199.49 50.41 200.22 49.68 200.96 M 48.02 216.86 C 47.64 217.86 47.27 218.87 46.90 219.87 C 56.31 226.19 65.49 232.90 75.27 238.66 C 83.51 242.08 92.61 242.15 101.38 242.75 C 93.23 240.39 84.78 239.14 76.85 236.07 C 66.90 230.20 57.62 223.27 48.02 216.86 Z" />
<path fill="#000000" opacity="1.00" d=" M 194.96 161.93 C 215.35 162.92 233.80 177.71 239.95 197.03 C 243.96 210.87 242.85 226.68 235.01 239.01 C 225.73 255.89 205.85 264.88 187.04 263.91 C 164.83 262.25 144.47 244.32 141.03 222.20 C 156.07 207.83 169.73 192.11 183.75 176.75 C 187.89 172.14 192.03 167.43 194.96 161.93 M 207.92 190.88 C 200.39 196.18 191.88 199.77 183.76 204.01 C 198.49 201.14 212.84 194.11 222.77 182.70 C 217.11 183.94 212.70 187.90 207.92 190.88 M 210.04 211.03 C 201.34 218.32 189.71 219.86 179.74 224.71 C 187.80 222.85 195.99 221.38 203.81 218.67 C 212.40 213.84 219.71 207.09 228.00 201.79 C 227.79 201.03 227.39 199.50 227.18 198.74 C 221.27 202.55 215.60 206.73 210.04 211.03 M 200.56 236.45 C 192.95 239.61 184.59 240.40 176.72 242.73 C 184.46 241.96 192.33 241.60 199.89 239.71 C 211.38 234.23 221.37 226.15 232.06 219.32 C 231.29 218.59 230.52 217.87 229.76 217.15 C 220.01 223.56 210.55 230.42 200.56 236.45 Z" />
<path fill="#000000" opacity="1.00" d=" M 137.83 228.71 C 142.85 240.54 149.86 252.05 161.07 258.92 C 169.18 264.94 179.38 266.38 189.02 268.32 C 177.86 285.14 158.53 296.87 138.00 296.10 C 117.42 297.03 98.29 284.95 86.87 268.40 C 97.61 266.79 108.59 264.18 117.30 257.31 C 126.93 250.22 134.10 240.05 137.83 228.71 Z" />
<path fill="#000000" opacity="1.00" d=" M 197.00 267.59 C 201.72 266.70 206.34 265.41 210.93 264.02 C 208.14 269.81 205.43 275.63 202.62 281.41 C 200.54 276.89 198.81 272.22 197.00 267.59 Z" />
<path fill="#000000" opacity="1.00" d=" M 68.79 265.28 C 73.12 266.31 77.49 267.19 81.84 268.14 C 80.04 272.59 78.36 277.09 76.34 281.45 C 73.75 276.09 71.26 270.69 68.79 265.28 Z" />
</g>
</svg>
